<svg width="73" height="13" viewBox="0 0 73 13" fill="none" xmlns="http://www.w3.org/2000/svg">
<path d="M11.8975 5.83223L9.61235 7.80406L10.3086 10.7529C10.347 10.913 10.3371 11.0809 10.2801 11.2353C10.2232 11.3898 10.1217 11.5239 9.98861 11.6208C9.85548 11.7176 9.69663 11.7728 9.53214 11.7794C9.36765 11.786 9.20489 11.7437 9.06442 11.6579L6.49997 10.0796L3.93399 11.6579C3.79355 11.7432 3.63098 11.7851 3.46677 11.7783C3.30256 11.7714 3.14405 11.7161 3.0112 11.6194C2.87834 11.5226 2.77708 11.3887 2.72017 11.2346C2.66326 11.0804 2.65324 10.9128 2.69137 10.7529L3.39012 7.80406L1.10497 5.83223C0.980706 5.72483 0.890836 5.58321 0.846584 5.42504C0.802332 5.26687 0.805659 5.09917 0.856148 4.94288C0.906637 4.78659 1.00205 4.64864 1.13048 4.54626C1.2589 4.44387 1.41464 4.38159 1.57825 4.36719L4.57434 4.12547L5.73012 1.32844C5.79268 1.176 5.89916 1.04561 6.03602 0.953845C6.17287 0.862078 6.33392 0.81308 6.4987 0.81308C6.66347 0.81308 6.82453 0.862078 6.96138 0.953845C7.09824 1.04561 7.20471 1.176 7.26727 1.32844L8.42255 4.12547L11.4186 4.36719C11.5826 4.38105 11.7388 4.44299 11.8677 4.54523C11.9966 4.64747 12.0924 4.78548 12.1432 4.94196C12.194 5.09844 12.1975 5.26643 12.1533 5.42489C12.109 5.58334 12.019 5.72522 11.8945 5.83274L11.8975 5.83223Z" fill="white"/>
<path d="M26.8975 5.83223L24.6124 7.80406L25.3086 10.7529C25.347 10.913 25.3371 11.0809 25.2801 11.2353C25.2232 11.3898 25.1217 11.5239 24.9886 11.6208C24.8555 11.7176 24.6966 11.7728 24.5321 11.7794C24.3676 11.786 24.2049 11.7437 24.0644 11.6579L21.5 10.0796L18.934 11.6579C18.7935 11.7432 18.631 11.7851 18.4668 11.7783C18.3026 11.7714 18.1441 11.7161 18.0112 11.6194C17.8783 11.5226 17.7771 11.3887 17.7202 11.2346C17.6633 11.0804 17.6532 10.9128 17.6914 10.7529L18.3901 7.80406L16.105 5.83223C15.9807 5.72483 15.8908 5.58321 15.8466 5.42504C15.8023 5.26687 15.8057 5.09917 15.8561 4.94288C15.9066 4.78659 16.0021 4.64864 16.1305 4.54626C16.2589 4.44387 16.4146 4.38159 16.5782 4.36719L19.5743 4.12547L20.7301 1.32844C20.7927 1.176 20.8992 1.04561 21.036 0.953845C21.1729 0.862078 21.3339 0.81308 21.4987 0.81308C21.6635 0.81308 21.8245 0.862078 21.9614 0.953845C22.0982 1.04561 22.2047 1.176 22.2673 1.32844L23.4225 4.12547L26.4186 4.36719C26.5826 4.38105 26.7388 4.44299 26.8677 4.54523C26.9966 4.64747 27.0924 4.78548 27.1432 4.94196C27.194 5.09844 27.1975 5.26643 27.1533 5.42489C27.109 5.58334 27.019 5.72522 26.8945 5.83274L26.8975 5.83223Z" fill="white"/>
<path d="M41.8975 5.83223L39.6124 7.80406L40.3086 10.7529C40.347 10.913 40.3371 11.0809 40.2801 11.2353C40.2232 11.3898 40.1217 11.5239 39.9886 11.6208C39.8555 11.7176 39.6966 11.7728 39.5321 11.7794C39.3676 11.786 39.2049 11.7437 39.0644 11.6579L36.5 10.0796L33.934 11.6579C33.7935 11.7432 33.631 11.7851 33.4668 11.7783C33.3026 11.7714 33.1441 11.7161 33.0112 11.6194C32.8783 11.5226 32.7771 11.3887 32.7202 11.2346C32.6633 11.0804 32.6532 10.9128 32.6914 10.7529L33.3901 7.80406L31.105 5.83223C30.9807 5.72483 30.8908 5.58321 30.8466 5.42504C30.8023 5.26687 30.8057 5.09917 30.8561 4.94288C30.9066 4.78659 31.0021 4.64864 31.1305 4.54626C31.2589 4.44387 31.4146 4.38159 31.5782 4.36719L34.5743 4.12547L35.7301 1.32844C35.7927 1.176 35.8992 1.04561 36.036 0.953845C36.1729 0.862078 36.3339 0.81308 36.4987 0.81308C36.6635 0.81308 36.8245 0.862078 36.9614 0.953845C37.0982 1.04561 37.2047 1.176 37.2673 1.32844L38.4225 4.12547L41.4186 4.36719C41.5826 4.38105 41.7388 4.44299 41.8677 4.54523C41.9966 4.64747 42.0924 4.78548 42.1432 4.94196C42.194 5.09844 42.1975 5.26643 42.1533 5.42489C42.109 5.58334 42.019 5.72522 41.8945 5.83274L41.8975 5.83223Z" fill="white"/>
<path d="M56.8975 5.83223L54.6124 7.80406L55.3086 10.7529C55.347 10.913 55.3371 11.0809 55.2801 11.2353C55.2232 11.3898 55.1217 11.5239 54.9886 11.6208C54.8555 11.7176 54.6966 11.7728 54.5321 11.7794C54.3676 11.786 54.2049 11.7437 54.0644 11.6579L51.5 10.0796L48.934 11.6579C48.7935 11.7432 48.631 11.7851 48.4668 11.7783C48.3026 11.7714 48.1441 11.7161 48.0112 11.6194C47.8783 11.5226 47.7771 11.3887 47.7202 11.2346C47.6633 11.0804 47.6532 10.9128 47.6914 10.7529L48.3901 7.80406L46.105 5.83223C45.9807 5.72483 45.8908 5.58321 45.8466 5.42504C45.8023 5.26687 45.8057 5.09917 45.8561 4.94288C45.9066 4.78659 46.0021 4.64864 46.1305 4.54626C46.2589 4.44387 46.4146 4.38159 46.5782 4.36719L49.5743 4.12547L50.7301 1.32844C50.7927 1.176 50.8992 1.04561 51.036 0.953845C51.1729 0.862078 51.3339 0.81308 51.4987 0.81308C51.6635 0.81308 51.8245 0.862078 51.9614 0.953845C52.0982 1.04561 52.2047 1.176 52.2673 1.32844L53.4225 4.12547L56.4186 4.36719C56.5826 4.38105 56.7388 4.44299 56.8677 4.54523C56.9966 4.64747 57.0924 4.78548 57.1432 4.94196C57.194 5.09844 57.1975 5.26643 57.1533 5.42489C57.109 5.58334 57.019 5.72522 56.8945 5.83274L56.8975 5.83223Z" fill="white"/>
<path d="M71.8975 5.83223L69.6124 7.80406L70.3086 10.7529C70.347 10.913 70.3371 11.0809 70.2801 11.2353C70.2232 11.3898 70.1217 11.5239 69.9886 11.6208C69.8555 11.7176 69.6966 11.7728 69.5321 11.7794C69.3676 11.786 69.2049 11.7437 69.0644 11.6579L66.5 10.0796L63.934 11.6579C63.7935 11.7432 63.631 11.7851 63.4668 11.7783C63.3026 11.7714 63.1441 11.7161 63.0112 11.6194C62.8783 11.5226 62.7771 11.3887 62.7202 11.2346C62.6633 11.0804 62.6532 10.9128 62.6914 10.7529L63.3901 7.80406L61.105 5.83223C60.9807 5.72483 60.8908 5.58321 60.8466 5.42504C60.8023 5.26687 60.8057 5.09917 60.8561 4.94288C60.9066 4.78659 61.0021 4.64864 61.1305 4.54626C61.2589 4.44387 61.4146 4.38159 61.5782 4.36719L64.5743 4.12547L65.7301 1.32844C65.7927 1.176 65.8992 1.04561 66.036 0.953845C66.1729 0.862078 66.3339 0.81308 66.4987 0.81308C66.6635 0.81308 66.8245 0.862078 66.9614 0.953845C67.0982 1.04561 67.2047 1.176 67.2673 1.32844L68.4225 4.12547L71.4186 4.36719C71.5826 4.38105 71.7388 4.44299 71.8677 4.54523C71.9966 4.64747 72.0924 4.78548 72.1432 4.94196C72.194 5.09844 72.1975 5.26643 72.1533 5.42489C72.109 5.58334 72.019 5.72522 71.8945 5.83274L71.8975 5.83223Z" fill="white"/>
</svg>
